<svg width="20" height="20" viewBox="0 0 20 20" fill="none" xmlns="http://www.w3.org/2000/svg">
<path d="M13.789 2.4837C13.6927 2.387 13.5782 2.31028 13.4522 2.25794C13.3263 2.20559 13.1912 2.17865 13.0548 2.17865C12.9184 2.17865 12.7833 2.20559 12.6573 2.25794C12.5313 2.31028 12.4168 2.387 12.3205 2.4837L5.42598 9.38653C5.34907 9.46337 5.28805 9.55465 5.24641 9.65514C5.20478 9.75563 5.18335 9.86335 5.18335 9.97214C5.18335 10.0809 5.20478 10.1887 5.24641 10.2891C5.28805 10.3896 5.34907 10.4809 5.42598 10.5578L12.3205 17.4606C12.727 17.8676 13.3825 17.8676 13.789 17.4606C14.1956 17.0536 14.1956 16.3973 13.789 15.9903L7.78223 9.96799L13.7973 3.94567C14.1956 3.54695 14.1956 2.88242 13.789 2.4837Z" fill="#1E232C" stroke="#1E232C" stroke-width="0.2"/>
</svg>
